HIERARCHY
ROOT Hip
{
  OFFSET 0.0 0.0 0.0
  CHANNELS 6 Xposition Yposition Zposition Xrotation Yrotation Zrotation
  JOINT LowerSpine
  {
    OFFSET 0.0 0.061367 -0.03653
    CHANNELS 3 Xrotation Yrotation Zrotation
    JOINT MiddleSpine
    {
      OFFSET 0.0 0.056002 0.002633
      CHANNELS 3 Xrotation Yrotation Zrotation
      JOINT Chest
      {
        OFFSET 0.0 0.069296 -0.013882
        CHANNELS 3 Xrotation Yrotation Zrotation
        JOINT Neck
        {
          OFFSET 0.0 0.156156 -0.002923
          CHANNELS 3 Xrotation Yrotation Zrotation
          JOINT Head
          {
            OFFSET 0.0 0.088183 0.023986
            CHANNELS 3 Xrotation Yrotation Zrotation
            End Site
            {
              OFFSET 1e-06 0.123215 0.003678
            }
          }
        }
        JOINT LClavicle
        {
          OFFSET 0.014189 0.150698 0.046467
          CHANNELS 3 Xrotation Yrotation Zrotation
          JOINT LShoulder
          {
            OFFSET 0.082893 0.021616 -0.034976
            CHANNELS 3 Xrotation Yrotation Zrotation
            JOINT LForearm
            {
              OFFSET 0.195645 -0.000695 -0.001695
              CHANNELS 3 Xrotation Yrotation Zrotation
              JOINT LHand
              {
                OFFSET 0.163209 0.000474 -0.000977
                CHANNELS 3 Xrotation Yrotation Zrotation
                End Site
                {
                  OFFSET 0.0 0.006864 0.0
                }
              }
            }
          }
        }
        JOINT RClavicle
        {
          OFFSET -0.014189 0.150698 0.046467
          CHANNELS 3 Xrotation Yrotation Zrotation
          JOINT RShoulder
          {
            OFFSET -0.082908 0.021619 -0.034982
            CHANNELS 3 Xrotation Yrotation Zrotation
            JOINT RForearm
            {
              OFFSET -0.195645 -0.000695 -0.001695
              CHANNELS 3 Xrotation Yrotation Zrotation
              JOINT RHand
              {
                OFFSET -0.163209 0.000474 -0.000977
                CHANNELS 3 Xrotation Yrotation Zrotation
                End Site
                {
                  OFFSET 0.0 0.006864 0.0
                }
              }
            }
          }
        }
      }
    }
  }
  JOINT RThigh
  {
    OFFSET -0.072558 0.02774 -0.005953
    CHANNELS 3 Xrotation Yrotation Zrotation
    JOINT RShin
    {
      OFFSET -0.005253 -0.285537 0.0
      CHANNELS 3 Xrotation Yrotation Zrotation
      JOINT RFoot
      {
        OFFSET 0.0 -0.28038 0.0
        CHANNELS 3 Xrotation Yrotation Zrotation
        JOINT RToe
        {
          OFFSET 0.0 -0.030816 0.064441
          CHANNELS 3 Xrotation Yrotation Zrotation
          End Site
          {
            OFFSET 0.0 0.0 0.043231
          }
        }
      }
    }
  }
  JOINT LThigh
  {
    OFFSET 0.072557 0.027741 -0.005953
    CHANNELS 3 Xrotation Yrotation Zrotation
    JOINT LShin
    {
      OFFSET 0.005253 -0.285539 0.0
      CHANNELS 3 Xrotation Yrotation Zrotation
      JOINT LFoot
      {
        OFFSET 0.0 -0.28038 0.0
        CHANNELS 3 Xrotation Yrotation Zrotation
        JOINT LToe
        {
          OFFSET 0.0 -0.030816 0.064441
          CHANNELS 3 Xrotation Yrotation Zrotation
          End Site
          {
            OFFSET 0.0 0.0 0.043231
          }
        }
      }
    }
  }
}
MOTION
Frames: 13
Frame Time: 0.03333333333333333
-0.063213 0.525216 -0.166773 5.988731 -1.525596 15.86945 18.133818 9.186714 -23.266247 -3.448302 -9.92451 -17.923565 -9.382299 -10.325784 16.004103 -0.644501 -20.008801 14.070324 -16.710114 19.723839 5.86585 -16.730072 11.142638 2.925457 8.693368 -19.900848 -36.280979 -8.3903 -45.21265 -22.964571 -15.798045 -12.947558 10.575611 3.447467 23.486792 14.686244 0.775173 26.490461 39.761532 -6.615861 33.427959 19.760092 18.829895 7.355275 11.280104 -28.217014 -1.26894 -18.444401 21.737982 2.913942 23.475679 -14.073748 5.326337 20.121136 5.263624 -19.066608 -10.435645 -29.527779 4.4225 -6.98082 28.932705 12.171288 9.658561 0.383998 -0.406597 -21.795876 -14.385111 17.46513 8.114166 
-0.061863 0.502777 -0.197016 4.011173 -3.803428 20.286987 20.501268 8.48486 -28.719368 -6.059523 -11.899416 -21.071682 -8.114712 -13.079436 19.704531 8.126402 -21.274654 15.607922 -13.516601 23.155973 6.775153 -22.967154 8.254842 5.245549 11.750773 -15.697399 -32.755909 -11.561911 -42.786572 -28.167027 -15.100462 -15.156836 13.113727 -0.008009 27.646778 14.830135 -0.240066 23.610731 37.581287 -8.956621 34.232681 22.720388 21.695751 9.129361 10.830745 -30.614048 -2.050236 -19.722483 21.674959 3.568385 24.516659 -15.9871 5.184281 21.255129 7.413426 -21.716377 -10.41331 -29.457325 7.561806 -9.915465 24.643999 15.34934 13.247911 -2.94726 -1.665214 -24.536461 -14.873728 20.478165 9.665078 
-0.067491 0.500391 -0.181643 3.002725 -3.461637 22.027016 20.141363 8.652953 -30.490877 -6.060483 -11.479709 -22.184433 -7.87678 -14.124033 20.702301 8.99324 -22.244949 15.181487 -12.248209 24.273699 6.655795 -23.7649 8.777443 6.006155 11.97661 -13.933947 -33.685211 -12.496712 -42.652058 -30.027353 -15.096086 -15.599564 13.811006 0.713206 28.688284 15.848352 0.812189 22.270317 37.38876 -10.462672 35.310863 24.865061 22.356026 9.225102 10.990499 -29.550909 -3.114343 -20.519506 20.751156 4.356737 25.031414 -15.803675 4.805721 22.522881 7.882842 -22.01358 -11.072906 -27.782921 7.736339 -11.772731 24.182083 16.464617 13.980469 -1.869341 -1.283691 -25.184422 -14.613709 21.400942 10.170532 
-0.065379 0.500841 -0.171599 3.017814 -3.890463 22.285442 20.309919 8.649722 -31.626034 -6.567747 -11.123389 -22.919329 -8.74916 -14.7621 21.080046 11.106554 -22.637777 15.369986 -12.000621 24.909075 6.733135 -24.036457 9.464992 6.338295 11.93713 -12.92098 -34.910206 -12.873584 -42.087997 -30.652035 -15.158348 -15.887053 14.166663 1.704953 28.617199 16.21734 0.310296 21.807768 37.677471 -12.047126 36.992722 26.544628 22.62328 9.424696 11.323099 -29.104614 -3.997142 -20.583029 20.462105 4.268884 25.885542 -16.25337 4.017011 22.89854 7.85963 -22.262032 -11.587968 -29.222654 7.171679 -12.228357 24.506021 16.614353 14.942575 -0.253734 0.119921 -25.2257 -14.74347 21.876822 10.458517 
-0.068548 0.499922 -0.168476 3.251936 -3.637335 21.870432 20.378279 8.503942 -31.9216 -7.216948 -11.1398 -23.05929 -9.309048 -15.145841 20.902708 12.440222 -22.422403 15.582681 -12.013809 24.933111 6.752131 -23.893101 9.739253 6.401349 11.926546 -12.602532 -35.595295 -12.924314 -42.275486 -30.606352 -15.085053 -15.876291 14.168204 1.91747 28.339167 15.929345 0.306477 21.55698 38.128021 -13.121894 39.68198 27.819706 22.460033 9.445743 11.499409 -29.887302 -4.635262 -20.639408 20.855402 3.528919 26.490078 -16.362614 3.599938 22.777956 7.828691 -22.217209 -11.708443 -31.042364 6.469586 -11.624956 24.709665 16.383373 15.266463 0.50454 0.805582 -25.121943 -14.814566 21.830942 10.394972 
-0.070666 0.500019 -0.165111 3.429366 -2.773957 21.132795 20.376598 8.112255 -32.043892 -7.587595 -11.154869 -22.901764 -9.363147 -15.160277 20.64847 12.92114 -22.078039 15.780434 -11.88776 24.745008 6.672166 -23.617714 9.855753 6.315727 11.77491 -12.739181 -35.967915 -12.551876 -42.375549 -29.983784 -14.951306 -15.757378 14.054956 1.977061 27.940533 15.742934 0.363648 21.596786 38.459812 -13.868942 41.484554 28.082678 22.220928 9.282456 11.515087 -31.23045 -5.094003 -20.963633 22.168175 2.902911 27.050016 -16.071838 3.420423 22.561033 7.897178 -21.981949 -11.670755 -31.681023 6.157037 -10.94056 24.610699 16.450113 15.240452 0.597489 1.356737 -24.838535 -14.823536 21.620407 10.230828 
-0.070891 0.501493 -0.154532 3.601302 -2.009121 20.968742 20.358686 7.850754 -32.363899 -7.857894 -11.118426 -23.093702 -9.312997 -15.160677 20.501545 13.304343 -22.013988 16.063057 -11.786586 24.83247 6.612458 -23.566511 10.000275 6.386559 11.256426 -12.427498 -36.039543 -12.440298 -42.257282 -29.649578 -14.92673 -15.805141 14.130526 2.261471 27.650311 15.898859 0.119351 21.489946 38.776581 -14.385962 41.760376 28.04439 22.251099 9.206357 11.597638 -32.849495 -4.947028 -21.491364 23.415249 2.947314 27.521324 -15.948849 3.138184 22.527369 8.073292 -21.960976 -11.7419 -31.747631 6.36248 -11.034928 24.680773 16.943878 15.362781 0.179081 1.775709 -24.8402 -14.934602 21.651527 10.283234 
-0.069035 0.503652 -0.14262 3.458161 -1.360518 21.288977 20.41247 7.629523 -32.844803 -8.10736 -11.083842 -23.460075 -9.24687 -15.248191 20.452448 13.829486 -22.034319 16.320541 -11.73251 25.101595 6.525243 -23.572964 10.264609 6.626782 10.335855 -11.648641 -36.054798 -12.952241 -42.517578 -29.817806 -14.981217 -15.941156 14.311177 2.570797 27.491991 16.363903 -0.29592 20.834513 39.220631 -14.891134 41.058533 27.921444 22.464636 9.152035 11.690902 -34.220142 -4.535227 -22.058542 24.541378 3.319343 27.877516 -15.78295 2.770036 22.688202 8.219565 -22.119621 -11.82701 -31.2708 6.82452 -11.876224 24.737926 17.661993 15.540906 -0.388546 2.066539 -25.025532 -15.029396 21.87628 10.424414 
-0.066368 0.506592 -0.129339 3.262415 -0.78103 21.735256 20.554377 7.422667 -33.368408 -8.38675 -11.212835 -23.877169 -9.259584 -15.511527 20.38876 14.49492 -22.049152 16.577391 -11.758288 25.430243 6.419736 -23.575966 10.660459 6.8656 9.24069 -10.746099 -35.863323 -13.866425 -43.093155 -30.35428 -15.0995 -16.091017 14.525742 2.984162 27.366407 16.911266 -0.651807 19.894209 39.735992 -15.383441 40.094284 27.855402 22.752991 9.178832 11.791327 -35.184353 -4.277692 -22.562389 25.340734 3.688813 28.202637 -15.410328 2.347838 23.033022 8.362967 -22.353733 -11.913671 -30.116364 7.549623 -12.977001 24.747154 18.494627 15.757117 -0.920624 2.310813 -25.317774 -15.092635 22.191851 10.607919 
-0.063362 0.510303 -0.115062 3.343609 -0.346987 21.998329 20.451454 7.37228 -33.827038 -8.579386 -11.371065 -24.355742 -9.013894 -15.986094 20.474878 15.251038 -22.097261 16.539173 -11.82456 25.770884 6.352808 -23.515005 11.289853 6.893723 7.923546 -9.854257 -35.551323 -15.04872 -43.684338 -31.038679 -15.075279 -16.327509 14.821097 3.706961 27.047464 17.375732 -1.127356 18.83626 40.123955 -15.710176 39.320992 27.856997 23.054371 9.257948 11.941092 -35.971638 -4.437622 -22.881414 25.990227 3.912515 28.585581 -14.976102 1.669248 23.350845 8.499738 -22.673016 -12.020557 -28.870174 8.212874 -14.08585 24.798052 19.23205 16.073479 -1.180783 2.714324 -25.635441 -15.10276 22.570774 10.870922 
-0.060032 0.513861 -0.100518 3.706791 0.011962 22.084127 19.927153 7.449277 -34.024075 -8.666943 -11.53725 -24.742161 -8.773301 -16.413916 20.474962 15.947073 -22.135176 16.312046 -11.820476 26.040352 6.309099 -23.389969 11.965207 6.746117 6.963943 -9.162628 -35.220078 -16.295467 -44.453884 -31.795538 -15.0064 -16.549358 15.059387 4.512696 26.682697 17.709473 -1.44044 17.685181 40.406479 -15.922744 38.897469 27.877321 23.299625 9.348659 12.051993 -36.766148 -4.823342 -23.039251 26.6486 4.020129 28.752529 -14.516601 0.991362 23.641565 8.57117 -22.95788 -12.103046 -28.117064 8.863783 -14.983477 25.166885 19.804125 16.216078 -1.20417 3.037496 -25.895227 -15.016948 22.911661 11.107615 
-0.057022 0.516693 -0.084738 4.165301 0.360043 22.259462 19.132946 7.583144 -34.072174 -8.722656 -11.701553 -25.111822 -8.450402 -16.86437 20.388807 16.56085 -22.167887 16.133316 -11.702703 26.270985 6.291425 -23.194571 12.690913 6.570288 6.228414 -8.490932 -34.805584 -17.557533 -45.449898 -32.730114 -14.973443 -16.729719 15.248668 5.478806 26.213318 17.968111 -1.672338 16.684917 40.543259 -16.272392 38.601879 27.997807 23.51446 9.425153 12.147715 -37.511547 -5.28339 -23.314466 27.008123 4.125812 28.859161 -14.065814 0.396671 23.944365 8.640416 -23.181347 -12.174321 -27.287745 9.528851 -15.711507 25.377428 20.538168 16.181925 -1.05663 3.321904 -26.090549 -14.924259 23.21714 11.315936 
-0.053425 0.518577 -0.068493 4.616889 0.637116 22.458124 18.318447 7.748411 -34.07877 -8.788294 -11.865511 -25.447681 -7.885139 -17.371475 20.244099 17.104027 -22.170223 16.054863 -11.539615 26.418831 6.288031 -23.038595 13.339109 6.43775 5.783719 -8.125463 -34.198997 -18.520103 -46.485371 -33.745968 -14.902164 -16.876286 15.403745 6.289419 25.713486 18.167953 -1.781316 15.900831 40.385368 -16.636305 38.376957 28.172537 23.682301 9.467961 12.201271 -38.363476 -5.847288 -23.628544 27.015419 4.228185 28.996193 -13.507491 0.185445 24.287645 8.817207 -23.288994 -12.191899 -26.243977 10.22898 -16.322987 25.433228 21.485865 15.952798 -1.101469 3.456973 -26.312313 -14.807394 23.460329 11.481097 
